PathFileType  4	(X/Y/Z) C:\Users\antoi\Documents\MyRepositories\mobilecap\ResultsAnalysis
DataRate	CameraRate	NumFrames	NumMarkers	Units	OrigDataRate	OrigDataStartFrame	OrigNumFrames
100.0	100.0	4	51	mm	100.0	136	271
Frame#	Time	r_knee			r_shank_antsup			r_ankle			r_calc			r_5meta			r_toe			L_knee			L_shank_antsup			L_ankle			L_calc			L_5meta			L_toe			r_sh2			r_sh3			r_sh4			L_sh2			L_sh3			r_thigh1			r_thigh2			r_thigh3			r_thigh4			r_thigh5			L_thigh1			L_thigh2			L_thigh3			L_thigh4			r.ASIS			r.PSIS			L.ASIS			L.PSIS			C7			R_Shoulder			L_Shoulder			R_Sternum			L_Sternum			R_humerus			R_elbow_med			R_elbow_lat			R_forearm			R_wrist_radius			R_wrist_ulna			L_humerus			L_elbow_med			L_elbow_lat			L_forearm			L_wrist_radius			L_wrist_ulna			R_HJC			L_HJC			R_HJC_reg			L_HJC_reg			
		X1	Y1	Z1	X2	Y2	Z2	X3	Y3	Z3	X4	Y4	Z4	X5	Y5	Z5	X6	Y6	Z6	X7	Y7	Z7	X8	Y8	Z8	X9	Y9	Z9	X10	Y10	Z10	X11	Y11	Z11	X12	Y12	Z12	X13	Y13	Z13	X14	Y14	Z14	X15	Y15	Z15	X16	Y16	Z16	X17	Y17	Z17	X18	Y18	Z18	X19	Y19	Z19	X20	Y20	Z20	X21	Y21	Z21	X22	Y22	Z22	X23	Y23	Z23	X24	Y24	Z24	X25	Y25	Z25	X26	Y26	Z26	X27	Y27	Z27	X28	Y28	Z28	X29	Y29	Z29	X30	Y30	Z30	X31	Y31	Z31	X32	Y32	Z32	X33	Y33	Z33	X34	Y34	Z34	X35	Y35	Z35	X36	Y36	Z36	X37	Y37	Z37	X38	Y38	Z38	X39	Y39	Z39	X40	Y40	Z40	X41	Y41	Z41	X42	Y42	Z42	X43	Y43	Z43	X44	Y44	Z44	X45	Y45	Z45	X46	Y46	Z46	X47	Y47	Z47	X48	Y48	Z48	X49	Y49	Z49	X50	Y50	Z50	X51	Y51	Z51	

136	1.35000000	-445.30659	694.87768	-402.76288	-394.61850	648.90598	-400.26638	-350.15142	312.82473	-371.51310	-407.65062	302.77442	-419.29838	-260.12964	227.96782	-352.88804	-214.98713	243.06326	-401.35511	-429.20181	684.80679	-762.99915	-371.59312	617.30749	-761.25028	-355.56014	306.78879	-802.13989	-411.90965	291.24435	-748.53470	-273.80000	208.09313	-816.46188	-215.35044	222.71376	-773.94571	-375.69283	540.52941	-374.82115	-466.37245	643.44104	-373.35507	-454.23618	527.09658	-356.11697	-454.19455	619.79581	-797.51778	-431.33212	500.59746	-819.95373	-470.46897	948.75999	-381.26861	-437.75998	839.81110	-388.90900	-540.60512	804.55832	-409.53421	-576.82188	915.19285	-400.21967	-491.50908	800.35805	-384.60035	-474.20288	963.49518	-783.72042	-427.07986	833.01353	-774.11477	-580.46673	927.38162	-778.03908	-534.05129	797.07678	-752.66491	-447.83975	1127.17709	-480.82498	-641.60291	1189.75276	-550.78262	-452.72976	1123.64797	-691.91812	-640.96994	1187.32820	-630.32136	-439.87849	1594.48358	-585.79873	-407.55995	1563.84173	-459.16561	-395.22811	1570.16165	-703.11257	-334.87740	1510.37001	-552.44683	-332.68312	1507.22132	-593.85247	-381.73862	1499.50314	-362.76185	-449.95122	1321.75651	-243.19433	-411.67914	1369.69529	-203.43787	-317.44755	1351.33771	-211.84781	-193.20245	1287.38317	-223.69892	-200.79447	1271.70350	-189.38772	-379.33429	1520.36716	-804.29387	-418.54645	1330.42189	-929.07373	-381.21436	1387.06014	-957.58289	-279.33912	1348.93450	-949.06616	-173.69768	1284.38236	-921.93920	-181.39273	1267.39735	-957.57001	-541.21085	1055.04441	-480.15603	-542.60511	1052.78292	-687.64693	-529.55826	1075.68695	-508.46163	-528.44716	1071.44300	-647.77022	
137	1.36000000	-429.58584	677.01948	-401.75581	-378.69569	631.45052	-399.27394	-332.56571	295.68452	-369.68716	-389.62932	285.08997	-417.89086	-242.02669	211.46313	-350.22108	-196.66602	226.89916	-398.39177	-414.84828	666.90306	-764.07180	-355.54721	600.65919	-761.83355	-334.11326	290.72981	-804.46392	-390.51869	274.05457	-751.45098	-250.45492	193.58804	-818.92894	-192.76778	208.57869	-775.07078	-359.30774	523.23782	-373.53182	-451.42095	625.00003	-372.76490	-437.74073	509.36503	-354.82721	-437.92964	601.97861	-798.60715	-412.89214	483.52320	-822.04166	-456.92283	930.84062	-381.29582	-423.03440	822.06255	-388.69317	-525.53969	785.83157	-408.23785	-563.18628	895.96070	-398.54662	-476.21591	782.13826	-383.84763	-462.05050	945.14626	-784.28665	-414.18974	814.94911	-775.12680	-568.10062	908.42581	-778.55041	-520.69973	778.48843	-753.06328	-437.32091	1108.47066	-481.15140	-630.58463	1171.08565	-550.50364	-442.04949	1105.08713	-691.47944	-629.91564	1168.79825	-630.01830	-428.70759	1575.25124	-585.39474	-396.86121	1544.09773	-458.71165	-383.80933	1551.13507	-702.92951	-324.05618	1490.49293	-552.52553	-321.76187	1487.41538	-593.89863	-373.89767	1478.88347	-361.89139	-449.16066	1302.58706	-244.42418	-410.34130	1349.15700	-203.57567	-316.65026	1327.15069	-209.81581	-194.73977	1258.18149	-218.85313	-203.64872	1242.90556	-184.66626	-370.25231	1500.78377	-804.63171	-417.83270	1312.09181	-928.49225	-378.66521	1367.03695	-957.78217	-278.36159	1324.45490	-950.73786	-175.58433	1255.23428	-925.35290	-184.27853	1239.02266	-961.33227	-530.45274	1036.31310	-480.08844	-531.89364	1034.26669	-687.58103	-518.84033	1057.12389	-508.78592	-517.67081	1053.13322	-647.59224	
138	1.37000000	-413.06427	658.41898	-400.80645	-362.09146	612.92485	-397.95639	-316.84161	277.24435	-367.97400	-373.26853	266.20673	-416.95954	-226.02757	193.32806	-347.26648	-180.32499	208.69390	-395.27089	-399.48467	648.37482	-765.36824	-338.74238	582.98841	-762.35356	-314.27192	273.55378	-806.34279	-370.81088	255.64580	-753.93831	-228.91435	177.91359	-821.38746	-171.98506	193.01247	-776.05739	-343.02245	504.60101	-372.17845	-434.55044	607.10829	-372.18985	-421.64312	490.71055	-354.29224	-420.66262	584.00385	-800.00424	-394.53108	465.76422	-823.96647	-442.89012	911.98678	-381.25573	-407.75398	803.69521	-388.33007	-509.67332	766.23012	-407.15522	-548.95942	875.63002	-397.08613	-460.12864	762.97144	-383.38985	-449.67946	925.89900	-784.73187	-400.87244	796.05694	-776.02314	-555.31673	888.43509	-778.89410	-506.81140	758.87548	-753.06767	-426.80854	1089.06223	-481.66086	-619.81475	1151.36921	-550.31080	-431.58403	1085.48288	-691.27272	-619.03165	1149.33901	-629.68953	-417.60130	1554.83004	-585.06317	-386.23433	1523.34727	-458.37252	-372.51917	1531.00647	-702.69001	-313.23728	1469.47284	-552.39793	-310.78330	1466.57198	-593.93686	-366.07552	1457.33572	-361.15362	-448.39536	1282.68389	-245.83726	-409.21063	1327.98275	-203.77257	-316.44300	1302.53904	-207.54156	-196.85356	1228.34930	-214.04681	-207.23116	1213.70225	-179.85585	-361.27844	1480.18893	-804.85570	-417.29309	1293.27740	-928.03541	-376.33447	1346.45815	-957.84787	-277.81027	1299.50704	-952.50556	-178.15573	1225.70310	-928.36680	-187.86048	1210.35911	-965.17565	-519.66660	1016.77638	-480.02993	-521.37860	1014.70949	-687.51951	-508.19439	1037.36178	-509.44265	-506.82899	1033.82493	-647.78969	
139	1.38000000	-395.57981	639.09512	-399.90267	-344.83249	593.37863	-396.29178	-302.54662	257.45309	-366.60453	-358.44519	246.41667	-416.32427	-212.15666	172.89727	-345.04030	-165.95027	188.05037	-392.67994	-382.80311	629.62413	-767.02167	-321.04655	564.53615	-762.99280	-295.96613	255.27215	-807.55120	-352.68802	236.40348	-755.77890	-209.64869	160.34163	-823.26707	-153.20710	175.29340	-777.17080	-326.73602	484.82147	-370.70734	-416.34139	589.27467	-371.39678	-405.74097	471.37129	-354.15539	-402.49647	565.76037	-801.53886	-376.26651	447.50763	-825.63519	-428.78193	892.45388	-380.91399	-391.98450	784.87200	-387.63012	-493.16081	745.62038	-406.42502	-534.28910	854.18673	-395.88661	-443.53515	743.10126	-382.84352	-437.11503	905.92549	-785.32974	-386.96511	776.59724	-776.79027	-542.23828	867.39669	-779.10767	-492.37102	738.36683	-753.01930	-416.35350	1068.71075	-482.36288	-609.30358	1130.50204	-550.19938	-421.41140	1064.95611	-691.58474	-608.51359	1128.73660	-629.53276	-406.41534	1533.04081	-584.79176	-375.57693	1501.45171	-458.22248	-361.27485	1509.75471	-702.61632	-302.35534	1447.34817	-552.23550	-299.62804	1444.75919	-593.94552	-358.41105	1434.98883	-360.26305	-447.68134	1262.20632	-247.33573	-408.21038	1306.32458	-204.04846	-316.42863	1277.31625	-205.67465	-199.63786	1198.12669	-209.08786	-211.49889	1184.08007	-175.17136	-352.39586	1458.58282	-804.90055	-416.78644	1273.90561	-927.48720	-374.19485	1325.29086	-957.76164	-277.63875	1274.05509	-954.20721	-181.22109	1195.93330	-932.00703	-191.91886	1181.11768	-968.94262	-508.87322	996.18887	-480.23436	-511.09459	994.13123	-687.71907	-497.60530	1016.48136	-510.24025	-496.22948	1013.40783	-648.34858	
